<?xml version="1.0" encoding="UTF-8"?>
<svg id="Layer_1" xmlns="http://www.w3.org/2000/svg" version="1.1" viewBox="0 0 512 512">
  <!-- Generator: Adobe Illustrator 29.0.0, SVG Export Plug-In . SVG Version: 2.1.0 Build 186)  -->
  <defs>
    <style>
      .st0 {
        isolation: isolate;
      }
    </style>
  </defs>
  <g class="st0">
    <path d="M431.1,219.7c-14.9,24.1-36.6,43.7-65,59s-62.3,24.2-101.6,26.9l-21.9,122.5c-8.5,47.1-31.5,70.6-69.1,70.6s-39.7-6.1-57.2-18.3c-17.5-12.2-31.4-30.8-41.9-55.9-10.5-25.1-15.8-55.9-15.8-92.5,0-68.8,11.1-127.1,33.3-175.1,22.2-47.9,52-83.9,89.4-107.7,37.4-23.9,78.7-35.8,123.7-35.8s58.9,5.6,81.1,16.8c22.2,11.2,39,26.3,50.3,45.5,11.3,19.1,17,40.7,17,64.8s-7.5,55.2-22.4,79.3ZM377.7,145c0-22.4-7.4-40.6-22.1-54.6-14.7-14.1-37.5-21.1-68.4-21.1s-65.3,11-91.2,33c-25.9,22-45.9,52.6-60,91.7-14.1,39.1-21.1,83.8-21.1,133.9s2.1,39.6,6.4,55.9c4.2,16.3,9.7,28.9,16.3,37.9,6.6,9,13,13.5,19.1,13.5s14.9-11.7,19.3-35.1l16.8-96c-13.2-2-19-2.9-17.3-2.5-10.2-1.7-16.8-4.8-19.8-9.4s-4.6-10.4-4.6-17.5,2.1-13.4,6.4-17.8c4.2-4.4,10.1-6.6,17.5-6.6s5.9.2,7.6.5c8.1,1.4,14.4,2.2,18.8,2.5,4.4-26.4,10.7-61.8,18.8-106.2,2-11.5,6.7-19.7,14-24.6,7.3-4.9,15.8-7.4,25.7-7.4s19.2,2.1,24.1,6.4c4.9,4.2,7.4,10.9,7.4,20.1s-.3,9.8-1,13.2l-16.8,98.6c69.4-8.8,104.2-44.9,104.2-108.2Z"/>
  </g>
</svg>